<svg width="28" height="28" viewBox="0 0 28 28" fill="none" xmlns="http://www.w3.org/2000/svg">
<circle cx="14" cy="14" r="14" fill="#E5EFFF"/>
<path d="M7.59607 17.5852H5.99782H7.59607Z" fill="#073070"/>
<path d="M20.7817 10.9924H22.1802H20.7817Z" fill="#073070"/>
<path d="M17.3854 21.1812V22.7795V21.1812Z" fill="#073070"/>
<path d="M7.59607 10.9924H5.99782H7.59607Z" fill="#073070"/>
<path d="M21.5808 13.7893H20.9815V14.988H21.5808V13.7893ZM23.7784 14.988C24.1094 14.988 24.3778 14.7197 24.3778 14.3887C24.3778 14.0576 24.1094 13.7893 23.7784 13.7893V14.988ZM21.5808 14.988H23.7784V13.7893H21.5808V14.988ZM14.5884 21.7806V21.1812H13.3898V21.7806H14.5884ZM13.3898 23.9782C13.3898 24.3092 13.6581 24.5775 13.9891 24.5775C14.3201 24.5775 14.5884 24.3092 14.5884 23.9782H13.3898ZM13.3898 21.7806V23.9782H14.5884V21.7806H13.3898ZM6.79695 13.7893H7.39629V14.988H6.79695V13.7893ZM4.59935 14.988C4.26833 14.988 4 14.7197 4 14.3887C4 14.0576 4.26833 13.7893 4.59935 13.7893V14.988ZM6.79695 14.988H4.59935V13.7893H6.79695V14.988ZM14.5884 6.79695V7.39629H13.3898V6.79695H14.5884ZM13.3898 4.59935C13.3898 4.26833 13.6581 4 13.9891 4C14.3201 4 14.5884 4.26833 14.5884 4.59935H13.3898ZM13.3898 6.79695V4.59935H14.5884V6.79695H13.3898Z" fill="#073070"/>
<path d="M7.59607 18.0852C7.87222 18.0852 8.09607 17.8613 8.09607 17.5852C8.09607 17.309 7.87222 17.0852 7.59607 17.0852V18.0852ZM5.99782 17.0852C5.72168 17.0852 5.49782 17.309 5.49782 17.5852C5.49782 17.8613 5.72168 18.0852 5.99782 18.0852V17.0852ZM20.7817 10.9924H20.2817C20.2817 11.2685 20.5055 11.4924 20.7817 11.4924V10.9924ZM22.1802 11.4924C22.4563 11.4924 22.6802 11.2685 22.6802 10.9924C22.6802 10.7162 22.4563 10.4924 22.1802 10.4924V11.4924ZM17.3854 21.1812V20.6812H16.8854V21.1812H17.3854ZM16.8854 22.7795C16.8854 23.0556 17.1092 23.2795 17.3854 23.2795C17.6615 23.2795 17.8854 23.0556 17.8854 22.7795H16.8854ZM7.59607 10.9924V11.4924C7.87222 11.4924 8.09607 11.2685 8.09607 10.9924H7.59607ZM5.99782 10.4924C5.72168 10.4924 5.49782 10.7162 5.49782 10.9924C5.49782 11.2685 5.72168 11.4924 5.99782 11.4924V10.4924ZM21.2817 17.6851C21.2817 17.4089 21.0578 17.1851 20.7817 17.1851C20.5055 17.1851 20.2817 17.4089 20.2817 17.6851H21.2817ZM8.09607 17.6851C8.09607 17.4089 7.87222 17.1851 7.59607 17.1851C7.31993 17.1851 7.09607 17.4089 7.09607 17.6851H8.09607ZM10.8925 21.6812C11.1686 21.6812 11.3925 21.4574 11.3925 21.1812C11.3925 20.9051 11.1686 20.6812 10.8925 20.6812V21.6812ZM10.8925 8.29586C11.1686 8.29586 11.3925 8.072 11.3925 7.79586C11.3925 7.51971 11.1686 7.29586 10.8925 7.29586V8.29586ZM17.3854 7.79586H16.8854V8.29586H17.3854V7.79586ZM7.09607 15.6123C7.09607 15.8885 7.31993 16.1123 7.59607 16.1123C7.87222 16.1123 8.09607 15.8885 8.09607 15.6123H7.09607ZM8.09607 13.0651C8.09607 12.789 7.87222 12.5651 7.59607 12.5651C7.31993 12.5651 7.09607 12.789 7.09607 13.0651H8.09607ZM20.2817 15.6123C20.2817 15.8885 20.5055 16.1123 20.7817 16.1123C21.0578 16.1123 21.2817 15.8885 21.2817 15.6123H20.2817ZM21.2817 13.0651C21.2817 12.789 21.0578 12.5651 20.7817 12.5651C20.5055 12.5651 20.2817 12.789 20.2817 13.0651H21.2817ZM15.2627 8.29586C15.5388 8.29586 15.7627 8.072 15.7627 7.79586C15.7627 7.51971 15.5388 7.29586 15.2627 7.29586V8.29586ZM12.8154 7.29586C12.5392 7.29586 12.3154 7.51971 12.3154 7.79586C12.3154 8.072 12.5392 8.29586 12.8154 8.29586V7.29586ZM15.2627 21.6812C15.5388 21.6812 15.7627 21.4574 15.7627 21.1812C15.7627 20.9051 15.5388 20.6812 15.2627 20.6812V21.6812ZM12.8154 20.6812C12.5392 20.6812 12.3154 20.9051 12.3154 21.1812C12.3154 21.4574 12.5392 21.6812 12.8154 21.6812V20.6812ZM10.147 16.5596C10.022 16.8058 10.1202 17.1068 10.3664 17.2318C10.6126 17.3569 10.9135 17.2587 11.0386 17.0125L10.147 16.5596ZM13.007 12.033L13.4528 12.2594L13.4529 12.2594L13.007 12.033ZM13.144 12.035L13.5961 11.8215L13.5961 11.8213L13.144 12.035ZM14.9354 16.9995C15.0534 17.2492 15.3514 17.3561 15.6011 17.2382C15.8508 17.1203 15.9576 16.8222 15.8397 16.5725L14.9354 16.9995ZM11.7915 15.0874C11.5154 15.0874 11.2915 15.3112 11.2915 15.5874C11.2915 15.8635 11.5154 16.0874 11.7915 16.0874V15.0874ZM13.9891 16.0874C14.2652 16.0874 14.4891 15.8635 14.4891 15.5874C14.4891 15.3112 14.2652 15.0874 13.9891 15.0874V16.0874ZM17.0852 16.786C17.0852 17.0622 17.309 17.286 17.5852 17.286C17.8613 17.286 18.0852 17.0622 18.0852 16.786H17.0852ZM18.0852 11.9913C18.0852 11.7151 17.8613 11.4913 17.5852 11.4913C17.309 11.4913 17.0852 11.7151 17.0852 11.9913H18.0852ZM20.7817 17.0852C20.5055 17.0852 20.2817 17.309 20.2817 17.5852C20.2817 17.8613 20.5055 18.0852 20.7817 18.0852V17.0852ZM22.1802 18.0852C22.4563 18.0852 22.6802 17.8613 22.6802 17.5852C22.6802 17.309 22.4563 17.0852 22.1802 17.0852V18.0852ZM11.4924 21.1812C11.4924 20.9051 11.2685 20.6812 10.9924 20.6812C10.7162 20.6812 10.4924 20.9051 10.4924 21.1812H11.4924ZM10.4924 22.7795C10.4924 23.0556 10.7162 23.2795 10.9924 23.2795C11.2685 23.2795 11.4924 23.0556 11.4924 22.7795H10.4924ZM10.4924 7.79586C10.4924 8.072 10.7162 8.29586 10.9924 8.29586C11.2685 8.29586 11.4924 8.072 11.4924 7.79586H10.4924ZM11.4924 6.1976C11.4924 5.92146 11.2685 5.6976 10.9924 5.6976C10.7162 5.6976 10.4924 5.92146 10.4924 6.1976H11.4924ZM20.9815 13.7893V13.2893H20.4815V13.7893H20.9815ZM20.9815 14.988H20.4815V15.488H20.9815V14.988ZM14.5884 21.1812H15.0884V20.6812H14.5884V21.1812ZM13.3898 21.1812V20.6812H12.8898V21.1812H13.3898ZM7.39629 13.7893H7.89629V13.2893H7.39629V13.7893ZM7.39629 14.988V15.488H7.89629V14.988H7.39629ZM14.5884 7.39629V7.89629H15.0884V7.39629H14.5884ZM13.3898 7.39629H12.8898V7.89629H13.3898V7.39629ZM17.8854 6.1976C17.8854 5.92146 17.6615 5.6976 17.3854 5.6976C17.1092 5.6976 16.8854 5.92146 16.8854 6.1976H17.8854ZM7.59607 17.5852V17.0852H5.99782V17.5852V18.0852H7.59607V17.5852ZM20.7817 10.9924V11.4924H22.1802V10.9924V10.4924H20.7817V10.9924ZM17.3854 21.1812H16.8854V22.7795H17.3854H17.8854V21.1812H17.3854ZM7.59607 10.9924V10.4924H5.99782V10.9924V11.4924H7.59607V10.9924ZM20.7817 17.6851H20.2817V19.1834H20.7817H21.2817V17.6851H20.7817ZM20.7817 19.1834H20.2817C20.2817 20.0106 19.6111 20.6812 18.7839 20.6812V21.1812V21.6812C20.1634 21.6812 21.2817 20.5629 21.2817 19.1834H20.7817ZM18.7839 21.1812V20.6812H17.3854V21.1812V21.6812H18.7839V21.1812ZM7.59607 17.6851H7.09607V19.1834H7.59607H8.09607V17.6851H7.59607ZM7.59607 19.1834H7.09607C7.09607 20.5629 8.2144 21.6812 9.59389 21.6812V21.1812V20.6812C8.76668 20.6812 8.09607 20.0106 8.09607 19.1834H7.59607ZM9.59389 21.1812V21.6812H10.8925V21.1812V20.6812H9.59389V21.1812ZM7.59607 10.9924H8.09607V9.79368H7.59607H7.09607V10.9924H7.59607ZM7.59607 9.79368H8.09607C8.09607 8.96646 8.76668 8.29586 9.59389 8.29586V7.79586V7.29586C8.2144 7.29586 7.09607 8.41418 7.09607 9.79368H7.59607ZM9.59389 7.79586V8.29586H10.8925V7.79586V7.29586H9.59389V7.79586ZM20.7817 10.9924H21.2817V9.79368H20.7817H20.2817V10.9924H20.7817ZM20.7817 9.79368H21.2817C21.2817 8.41418 20.1634 7.29586 18.7839 7.29586V7.79586V8.29586C19.6111 8.29586 20.2817 8.96646 20.2817 9.79368H20.7817ZM18.7839 7.79586V7.29586H17.3854V7.79586V8.29586H18.7839V7.79586ZM10.5928 16.786L11.0386 17.0125L13.4528 12.2594L13.007 12.033L12.5613 11.8066L10.147 16.5596L10.5928 16.786ZM13.007 12.033L13.4529 12.2594C13.3806 12.4017 13.2346 12.4913 13.0751 12.4913V11.9913V11.4913C12.8581 11.4913 12.6595 11.6131 12.5612 11.8066L13.007 12.033ZM13.0751 11.9913V12.4913C12.911 12.4913 12.7619 12.3967 12.692 12.2486L13.144 12.035L13.5961 11.8213C13.5009 11.6199 13.2981 11.4913 13.0751 11.4913V11.9913ZM13.144 12.035L12.6919 12.2485L14.9354 16.9995L15.3876 16.786L15.8397 16.5725L13.5961 11.8215L13.144 12.035ZM11.7915 15.5874V16.0874H13.9891V15.5874V15.0874H11.7915V15.5874ZM17.5852 16.786H18.0852V11.9913H17.5852H17.0852V16.786H17.5852ZM20.7817 17.5852V18.0852H22.1802V17.5852V17.0852H20.7817V17.5852ZM10.9924 21.1812H10.4924V22.7795H10.9924H11.4924V21.1812H10.9924ZM10.9924 7.79586H11.4924V6.1976H10.9924H10.4924V7.79586H10.9924ZM21.5808 13.7893V13.2893H20.9815V13.7893V14.2893H21.5808V13.7893ZM20.9815 13.7893H20.4815V14.988H20.9815H21.4815V13.7893H20.9815ZM20.9815 14.988V15.488H21.5808V14.988V14.488H20.9815V14.988ZM21.5808 14.988H22.0808V13.7893H21.5808H21.0808V14.988H21.5808ZM23.7784 14.988V15.488C24.3856 15.488 24.8778 14.9958 24.8778 14.3887H24.3778H23.8778C23.8778 14.4435 23.8333 14.488 23.7784 14.488V14.988ZM24.3778 14.3887H24.8778C24.8778 13.7815 24.3856 13.2893 23.7784 13.2893V13.7893V14.2893C23.8333 14.2893 23.8778 14.3338 23.8778 14.3887H24.3778ZM23.7784 13.7893H23.2784V14.988H23.7784H24.2784V13.7893H23.7784ZM21.5808 14.988V15.488H23.7784V14.988V14.488H21.5808V14.988ZM23.7784 13.7893V13.2893H21.5808V13.7893V14.2893H23.7784V13.7893ZM14.5884 21.7806H15.0884V21.1812H14.5884H14.0884V21.7806H14.5884ZM14.5884 21.1812V20.6812H13.3898V21.1812V21.6812H14.5884V21.1812ZM13.3898 21.1812H12.8898V21.7806H13.3898H13.8898V21.1812H13.3898ZM13.3898 21.7806V22.2806H14.5884V21.7806V21.2806H13.3898V21.7806ZM13.3898 23.9782H12.8898C12.8898 24.5854 13.3819 25.0775 13.9891 25.0775V24.5775V24.0775C13.9342 24.0775 13.8898 24.0331 13.8898 23.9782H13.3898ZM13.9891 24.5775V25.0775C14.5962 25.0775 15.0884 24.5854 15.0884 23.9782H14.5884H14.0884C14.0884 24.0331 14.044 24.0775 13.9891 24.0775V24.5775ZM14.5884 23.9782V23.4782H13.3898V23.9782V24.4782H14.5884V23.9782ZM13.3898 21.7806H12.8898V23.9782H13.3898H13.8898V21.7806H13.3898ZM14.5884 23.9782H15.0884V21.7806H14.5884H14.0884V23.9782H14.5884ZM6.79695 13.7893V14.2893H7.39629V13.7893V13.2893H6.79695V13.7893ZM7.39629 13.7893H6.89629V14.988H7.39629H7.89629V13.7893H7.39629ZM7.39629 14.988V14.488H6.79695V14.988V15.488H7.39629V14.988ZM6.79695 14.988H7.29695V13.7893H6.79695H6.29695V14.988H6.79695ZM4.59935 14.988V14.488C4.54447 14.488 4.5 14.4435 4.5 14.3887H4H3.5C3.5 14.9958 3.99218 15.488 4.59935 15.488V14.988ZM4 14.3887H4.5C4.5 14.3338 4.54447 14.2893 4.59935 14.2893V13.7893V13.2893C3.99218 13.2893 3.5 13.7815 3.5 14.3887H4ZM4.59935 13.7893H4.09935V14.988H4.59935H5.09935V13.7893H4.59935ZM6.79695 14.988V14.488H4.59935V14.988V15.488H6.79695V14.988ZM4.59935 13.7893V14.2893H6.79695V13.7893V13.2893H4.59935V13.7893ZM14.5884 6.79695H14.0884V7.39629H14.5884H15.0884V6.79695H14.5884ZM14.5884 7.39629V6.89629H13.3898V7.39629V7.89629H14.5884V7.39629ZM13.3898 7.39629H13.8898V6.79695H13.3898H12.8898V7.39629H13.3898ZM13.3898 6.79695V7.29695H14.5884V6.79695V6.29695H13.3898V6.79695ZM13.3898 4.59935H13.8898C13.8898 4.54447 13.9342 4.5 13.9891 4.5V4V3.5C13.3819 3.5 12.8898 3.99218 12.8898 4.59935H13.3898ZM13.9891 4V4.5C14.044 4.5 14.0884 4.54447 14.0884 4.59935H14.5884H15.0884C15.0884 3.99218 14.5963 3.5 13.9891 3.5V4ZM14.5884 4.59935V4.09935H13.3898V4.59935V5.09935H14.5884V4.59935ZM13.3898 6.79695H13.8898V4.59935H13.3898H12.8898V6.79695H13.3898ZM14.5884 4.59935H14.0884V6.79695H14.5884H15.0884V4.59935H14.5884ZM17.3854 7.79586H17.8854V6.1976H17.3854H16.8854V7.79586H17.3854ZM7.59607 15.6123H8.09607V13.0651H7.59607H7.09607V15.6123H7.59607ZM20.7817 15.6123H21.2817V13.0651H20.7817H20.2817V15.6123H20.7817ZM15.2627 7.79586V7.29586H12.8154V7.79586V8.29586H15.2627V7.79586ZM15.2627 21.1812V20.6812H12.8154V21.1812V21.6812H15.2627V21.1812Z" fill="#073070"/>
</svg>
