<svg width="38" height="38" viewBox="0 0 38 38" fill="none" xmlns="http://www.w3.org/2000/svg">
<path d="M18.9999 2.62109C14.6573 2.62595 10.494 4.35318 7.42336 7.42385C4.35269 10.4945 2.62546 14.6578 2.62061 19.0004C2.62788 23.3422 4.35589 27.5041 7.42603 30.5743C10.4962 33.6444 14.6581 35.3724 18.9999 35.3797C23.344 35.3797 27.5101 33.654 30.5818 30.5823C33.6536 27.5106 35.3792 23.3445 35.3792 19.0004C35.3792 14.6563 33.6536 10.4902 30.5818 7.41848C27.5101 4.34677 23.344 2.62109 18.9999 2.62109ZM28.9625 28.4519C28.0426 26.5965 26.6225 25.035 24.8624 23.9438C23.1023 22.8525 21.0722 22.2748 19.0012 22.2759C16.9303 22.277 14.9009 22.8568 13.1419 23.9499C11.3829 25.0431 9.96447 26.606 9.04654 28.4624C6.59739 25.9223 5.2327 22.5289 5.2413 19.0004C5.2413 15.3514 6.69086 11.8518 9.2711 9.27159C11.8513 6.69135 15.3509 5.24178 18.9999 5.24178C22.6489 5.24178 26.1485 6.69135 28.7287 9.27159C31.309 11.8518 32.7585 15.3514 32.7585 19.0004C32.7667 22.524 31.4056 25.9129 28.9625 28.4519ZM18.9999 9.17282C17.8337 9.17282 16.6937 9.51864 15.724 10.1666C14.7543 10.8145 13.9985 11.7354 13.5522 12.8129C13.1059 13.8903 12.9891 15.0759 13.2167 16.2197C13.4442 17.3635 14.0058 18.4142 14.8304 19.2389C15.6551 20.0635 16.7057 20.6251 17.8496 20.8526C18.9934 21.0801 20.179 20.9634 21.2564 20.5171C22.3339 20.0708 23.2548 19.315 23.9027 18.3453C24.5506 17.3756 24.8965 16.2356 24.8965 15.0694C24.8965 14.295 24.7439 13.5283 24.4476 12.8129C24.1513 12.0975 23.717 11.4474 23.1694 10.8999C22.6219 10.3523 21.9718 9.918 21.2564 9.62167C20.541 9.32534 19.7743 9.17282 18.9999 9.17282Z" fill="white"/>
</svg>
