<svg width="38" height="38" viewBox="0 0 38 38" fill="none" xmlns="http://www.w3.org/2000/svg">
<circle cx="19" cy="19" r="19" fill="#E5EFFF"/>
<path d="M26 19H19V12C19 11.4 18.6 11 18 11C13 11 9 15 9 20C9 25 13 29 18 29C23 29 27 25 27 20C27 19.4 26.6 19 26 19ZM19 26.9C15.2 27.5 11.6 24.8 11.1 21C10.5 17.2 13.2 13.6 17 13.1V20C17 20.6 17.4 21 18 21H24.9C24.5 24.1 22.1 26.5 19 26.9ZM22 9C21.4 9 21 9.4 21 10V16C21 16.6 21.4 17 22 17H28C28.6 17 29 16.6 29 16C29 12.1 25.9 9 22 9ZM23 15V11.1C25 11.5 26.5 13 26.9 15H23Z" fill="#073070"/>
</svg>
