<svg width="20" height="20" viewBox="0 0 20 20" fill="none" xmlns="http://www.w3.org/2000/svg">
<g clip-path="url(#clip0_1094_3713)">
<path d="M16.6914 6.77682L16.0512 18.7138C16.0305 19.1475 15.6588 19.4986 15.2251 19.4986H4.77506C4.34137 19.4986 3.96963 19.1475 3.94898 18.7138L3.30876 6.77682C3.28811 6.32247 3.63919 5.93008 4.09354 5.90943C4.54789 5.88877 4.94028 6.23986 4.96093 6.69421L5.55985 17.8464H14.4609L15.0598 6.69421C15.0805 6.23986 15.4729 5.88877 15.9272 5.90943C16.3609 5.93008 16.712 6.32247 16.6914 6.77682ZM18.8805 4.00943C18.8805 4.46377 18.5088 4.83551 18.0544 4.83551H1.94572C1.49137 4.83551 1.11963 4.46377 1.11963 4.00943C1.11963 3.55508 1.49137 3.18334 1.94572 3.18334H6.48919V1.32464C6.48919 0.932252 6.75767 0.705078 7.15006 0.705078H12.8501C13.2425 0.705078 13.5109 0.932252 13.5109 1.32464V3.18334H18.0544C18.5088 3.18334 18.8805 3.55508 18.8805 4.00943ZM7.93485 3.18334H12.0653V2.15073H7.93485V3.18334ZM8.28593 16.6073C8.69898 16.6073 9.00876 16.2149 9.00876 15.8225L8.80224 6.90073C8.80224 6.50834 8.4718 6.1779 8.05876 6.1779C7.66637 6.1779 7.33593 6.50834 7.35659 6.92138L7.56311 15.8638C7.56311 16.2562 7.89354 16.6073 8.28593 16.6073ZM11.6935 16.6073C12.0859 16.6073 12.4164 16.2768 12.4164 15.8844L12.6229 6.96269C12.6229 6.5703 12.3131 6.21921 11.9207 6.21921C11.5077 6.21921 11.1979 6.52899 11.1772 6.92138L10.9707 15.8431C10.9501 16.2562 11.2805 16.6073 11.6935 16.6073C11.6729 16.6073 11.6729 16.6073 11.6935 16.6073Z" fill="#FF0000"/>
</g>
<defs>
<clipPath id="clip0_1094_3713">
<rect width="19" height="19" fill="white" transform="translate(0.5 0.5)"/>
</clipPath>
</defs>
</svg>
