<svg width="23" height="23" viewBox="0 0 23 23" fill="none" xmlns="http://www.w3.org/2000/svg">
<g clip-path="url(#clip0_992_4785)">
<path d="M11.4998 5.99935V8.74935L15.1665 5.08268L11.4998 1.41602V4.16602C7.44817 4.16602 4.1665 7.44768 4.1665 11.4993C4.1665 12.9385 4.58817 14.2723 5.30317 15.4044L6.6415 14.066C6.23359 13.3006 5.99984 12.4298 5.99984 11.4993C5.99984 8.4606 8.46109 5.99935 11.4998 5.99935ZM17.6965 7.59435L16.3582 8.93268C16.7661 9.6981 16.9998 10.5689 16.9998 11.4993C16.9998 14.5381 14.5386 16.9994 11.4998 16.9994V14.2493L7.83317 17.916L11.4998 21.5827V18.8327C15.5515 18.8327 18.8332 15.551 18.8332 11.4993C18.8332 10.0602 18.4115 8.72643 17.6965 7.59435Z" fill="white"/>
</g>
<defs>
<clipPath id="clip0_992_4785">
<rect width="22" height="22" fill="white" transform="translate(0.5 0.5)"/>
</clipPath>
</defs>
</svg>
