<svg width="36" height="28" viewBox="0 0 36 28" fill="none" xmlns="http://www.w3.org/2000/svg">
<g clip-path="url(#clip0_2571_1516)">
<path d="M12.6 14C14.5096 14 16.3409 13.2625 17.6912 11.9497C19.0414 10.637 19.8 8.85652 19.8 7C19.8 5.14348 19.0414 3.36301 17.6912 2.05025C16.3409 0.737498 14.5096 0 12.6 0C10.6904 0 8.85909 0.737498 7.50883 2.05025C6.15857 3.36301 5.4 5.14348 5.4 7C5.4 8.85652 6.15857 10.637 7.50883 11.9497C8.85909 13.2625 10.6904 14 12.6 14ZM10.0294 16.625C4.48875 16.625 0 20.9891 0 26.3758C0 27.2727 0.748125 28 1.67062 28H23.5294C24.0919 28 24.5869 27.732 24.8906 27.3164L19.3106 21.8914C18.4725 21.0766 18 19.9719 18 18.8234V17.0188C17.1056 16.7617 16.155 16.625 15.1706 16.625H10.0294ZM21.6 12.25C20.6044 12.25 19.8 13.032 19.8 14V18.5227C19.8 19.4523 20.1769 20.3438 20.8519 21L26.8931 26.868C27.945 27.8906 29.655 27.8906 30.7125 26.868L34.8413 22.8539C35.8931 21.8312 35.8931 20.1687 34.8413 19.1406L28.8 13.2727C28.125 12.6164 27.2081 12.25 26.2519 12.25H21.6ZM22.95 16.625C22.95 16.2769 23.0922 15.9431 23.3454 15.6969C23.5986 15.4508 23.942 15.3125 24.3 15.3125C24.658 15.3125 25.0014 15.4508 25.2546 15.6969C25.5078 15.9431 25.65 16.2769 25.65 16.625C25.65 16.9731 25.5078 17.3069 25.2546 17.5531C25.0014 17.7992 24.658 17.9375 24.3 17.9375C23.942 17.9375 23.5986 17.7992 23.3454 17.5531C23.0922 17.3069 22.95 16.9731 22.95 16.625Z" fill="#073070"/>
</g>
<defs>
<clipPath id="clip0_2571_1516">
<rect width="36" height="28" fill="white"/>
</clipPath>
</defs>
</svg>
