<svg width="24" height="24" viewBox="0 0 24 24" fill="none" xmlns="http://www.w3.org/2000/svg">
<path fill-rule="evenodd" clip-rule="evenodd" d="M4.50824 1.50587C3.12432 1.50131 2 2.62193 2 4.00586V15.5602C2 16.941 3.11929 18.0602 4.5 18.0602H8.08579L11.2929 21.2673C11.6834 21.6579 12.3166 21.6579 12.7071 21.2673L15.9142 18.0602H19.5C20.8807 18.0602 22 16.941 22 15.5602V4.05533C22 2.67783 20.8857 1.55988 19.5082 1.55534L4.50824 1.50587ZM9 7.00092C9 5.34407 10.3431 4.00092 12 4.00092C13.6569 4.00092 15 5.34407 15 7.00092C15 8.65777 13.6569 10.0009 12 10.0009C10.3431 10.0009 9 8.65777 9 7.00092ZM12 10.0009C14.7614 10.0009 17 12.2395 17 15.0009C17 15.5532 16.5523 16.0009 16 16.0009H8C7.44772 16.0009 7 15.5532 7 15.0009C7 12.2395 9.23858 10.0009 12 10.0009Z" fill="#073070"/>
</svg>
